<svg width="512" height="512" viewBox="0 0 512 512" fill="none" xmlns="http://www.w3.org/2000/svg" role="img" aria-label="PG logo">
  <rect x="16" y="16" width="480" height="480" rx="96" fill="#050506"/>
  <rect x="44" y="44" width="424" height="424" rx="80" stroke="#FFFFFF" stroke-opacity="0.18" stroke-width="10"/>
  <path d="M146 148H286V188H190V240H268V280H190V364H146V148Z" fill="#FFFFFF"/>
  <path d="M346 148C389 148 422 182 422 224C422 264 391 296 350 299H322V260H345C365 260 380 246 380 226C380 205 364 188 343 188C321 188 305 205 305 226V364H261V224C261 182 294 148 346 148Z" fill="#FFFFFF"/>
</svg>
